# xmcd
#
# Track frame offsets:
#	187
#	21012
#	41802
#	61342
#	84202
#	102240
#	128335
#	146622
#	169892
#	192570
#	214640
#	236470
#	258182
#	280137
#
# Disc length: 4050 seconds
#
# Revision: 1
# Processed by: cddbd v1.5.1PL0 Copyright (c) Steve Scherf et al.
# Submitted via: CDex 1.50Beta5
#
DISCID=bb0fd00e
DTITLE=Jelly Velvet Company - 小室哲哉/小室みつ子/木根尚登作品集
DYEAR=1991
DGENRE=
TTITLE0=TIME TO COUNT DOWN
TTITLE1=Resistance
TTITLE2=Fallin’Angel
TTITLE3=TWINKLE NIGHT
TTITLE4=1974
TTITLE5=BEYOND THE TIME
TTITLE6=Get Wild
TTITLE7=Come On Everybody
TTITLE8=DIVE INTO YOUR BODY
TTITLE9=RUNNING TO HORIZON
TTITLE10=Self Control
TTITLE11=Seven Days War
TTITLE12=You can Dance
TTITLE13=Children of the New Century
EXTD=
EXTT0=
EXTT1=
EXTT2=
EXTT3=
EXTT4=
EXTT5=
EXTT6=
EXTT7=
EXTT8=
EXTT9=
EXTT10=
EXTT11=
EXTT12=
EXTT13=
PLAYORDER=
